<?xml version="1.0" encoding="UTF-8"?>
<svg version="1.1" xmlns="http://www.w3.org/2000/svg" width="64" height="64">
<path d="M0 0 C7.05254306 4.83602953 11.53258213 11.5744932 13.80078125 19.78125 C14.94413043 30.25751927 13.23995418 38.77602733 6.67578125 47.09375 C1.37146322 52.75321676 -5.93177121 56.26796837 -13.64453125 57.01953125 C-22.6225749 57.26819427 -29.5094091 55.26160452 -36.51171875 49.53125 C-42.65792441 43.69545877 -46.41358922 37.29912808 -47.19921875 28.78125 C-47.44104069 19.07992268 -44.51955445 11.08777972 -37.94921875 3.90625 C-27.50508591 -5.78371133 -12.24400146 -6.78530809 0 0 Z " fill="#393A3A" transform="translate(48.19921875,6.21875)"/>
<path d="M0 0 C2.3125 1.5625 2.3125 1.5625 4 4 C4.59754379 7.518869 4.64707844 9.84914077 2.87109375 13.0078125 C1.6514336 14.72437123 0.33162104 16.36876422 -1 18 C-3.93687346 17.41385929 -4.95714179 17.03928669 -7.25 14.9375 C-9.69283659 10.83702429 -9.6015146 8.7369275 -9 4 C-6.51474505 0.31814082 -4.41199243 -0.88239849 0 0 Z " fill="#0496D0" transform="translate(34,13)"/>
<path d="M0 0 C0.87392977 3.48390922 1.12860434 4.67848915 -0.25 8.125 C-3.13793103 12.86945813 -3.13793103 12.86945813 -5 14 C-8.76689361 13.93273404 -11.09178045 13.82032733 -13.9375 11.25 C-15.23370853 8.50508782 -15.52487013 6.99925788 -15 4 C-11.76382572 -1.70183088 -5.74321172 -0.35647521 0 0 Z " fill="#F6F8A8" transform="translate(28,33)"/>
<path d="M0 0 C3.56996357 0.04642345 5.29988097 0.09226191 8.4375 1.875 C10.25623125 5.42152594 9.7847376 7.54074574 8.6875 11.3125 C6.61024443 13.61231867 5.24841625 14.18305779 2.25 14.875 C-0.94303437 14.17409002 -2.35514189 12.68424657 -4.3046875 10.109375 C-5.9067311 7.2530182 -6.18587518 4.54143287 -6.3125 1.3125 C-4.58665266 -0.41334734 -2.35040633 0.0591493 0 0 Z " fill="#FD3E50" transform="translate(40.3125,32.6875)"/>
<path d="M0 0 C-0.33 0.66 -0.66 1.32 -1 2 C-1.90621094 1.95359375 -2.81242187 1.9071875 -3.74609375 1.859375 C-14.98904668 1.52625047 -21.98706003 3.37817724 -30.2734375 11.0703125 C-35.5277754 16.9428078 -37.40935855 23.97284565 -37.27734375 31.76171875 C-36.30009188 39.64855427 -31.99051834 46.04464812 -27 52 C-30.82865696 51.30092463 -32.44098334 49.83469707 -34.83203125 46.72265625 C-39.74797423 39.47205139 -40.92897079 30.8815389 -39.375 22.3125 C-37.14421016 14.07912433 -32.0433218 7.7234501 -25 3 C-16.79085381 -1.11063598 -8.92388094 -2.30293702 0 0 Z " fill="#94F003" transform="translate(41,3)"/>
<path d="M0 0 C0.33 0 0.66 0 1 0 C0.87837433 5.83803208 -0.84288261 8.89622323 -4.828125 13.13671875 C-11.93461552 19.23347411 -19.88369908 21.37098609 -29.04296875 21.28515625 C-34.98015605 20.71261375 -40.10468023 18.6245598 -44.625 14.75 C-45.305625 13.88375 -45.305625 13.88375 -46 13 C-43.02592804 13.63066258 -40.67895892 14.64691376 -38 16.0625 C-30.16809672 19.54904287 -22.62102342 18.92548676 -14.6875 16 C-7.98894396 12.9097094 -3.73925147 8.6297422 -0.5625 2 C-0.2840625 1.01 -0.2840625 1.01 0 0 Z " fill="#F3038B" transform="translate(58,42)"/>
<path d="M0 0 C6.01535222 0.30076761 9.77015712 2.95552872 14 7 C19.36488892 13.61748413 22.29111605 19.86563022 22.25 28.5 C22.25515625 29.5828125 22.2603125 30.665625 22.265625 31.78125 C21.98879794 35.13574256 21.19052385 37.86306413 20 41 C19.67 41 19.34 41 19 41 C19.04640625 39.73285156 19.0928125 38.46570312 19.140625 37.16015625 C19.73950973 24.46843369 19.73950973 24.46843369 15 13 C14.29875 11.9275 13.5975 10.855 12.875 9.75 C9.04565417 6.08714747 4.81815695 4.11437567 0 2 C0 1.34 0 0.68 0 0 Z " fill="#CB03EF" transform="translate(40,4)"/>
<path d="M0 0 C2.64 0 5.28 0 8 0 C9.36623674 2.73247348 9.128426 4.98198902 9 8 C8 9 8 9 4.4375 9.0625 C3.303125 9.041875 2.16875 9.02125 1 9 C-0.61949011 6.42786866 -1.04408751 5.32330841 -0.625 2.25 C-0.41875 1.5075 -0.2125 0.765 0 0 Z " fill="#F98792" transform="translate(35,33)"/>
<path d="M0 0 C-0.33 0.66 -0.66 1.32 -1 2 C-1.90621094 1.95359375 -2.81242187 1.9071875 -3.74609375 1.859375 C-15.36208906 1.51519736 -21.92679127 4.05030821 -31 11 C-30.4334959 8.22528606 -30.1189393 7.12686859 -28.125 5 C-19.33709889 -0.62425671 -10.15053629 -2.61949324 0 0 Z " fill="#00C0FC" transform="translate(41,3)"/>
<path d="M0 0 C0.598125 0.226875 1.19625 0.45375 1.8125 0.6875 C2.5 2.9375 2.5 2.9375 2.8125 5.6875 C1.375 8 1.375 8 -0.1875 9.6875 C-4.0625 8.8125 -4.0625 8.8125 -5.1875 7.6875 C-5.48982139 4.81544676 -5.56142386 3.24838579 -3.9375 0.8125 C-2.1875 -0.3125 -2.1875 -0.3125 0 0 Z " fill="#8FD0EA" transform="translate(33.1875,21.3125)"/>
<path d="M0 0 C-0.66 3.63 -1.32 7.26 -2 11 C-1.01 11.33 -0.02 11.66 1 12 C1.99 12.66 2.98 13.32 4 14 C-2.43014706 13.51470588 -2.43014706 13.51470588 -4.9375 11.25 C-6.23370853 8.50508782 -6.52487013 6.99925788 -6 4 C-2.75675676 0 -2.75675676 0 0 0 Z " fill="#ECEF7B" transform="translate(19,33)"/>
<path d="M0 0 C3.18959781 -0.4071827 5.16000247 -0.51483719 7.9375 1.1875 C9 3 9 3 8.6875 5.6875 C8.460625 6.450625 8.23375 7.21375 8 8 C7.01 6.68 6.02 5.36 5 4 C3.04105639 4.11306697 3.04105639 4.11306697 1 5 C-0.29660434 7.49034386 -0.29660434 7.49034386 -1 10 C-1.66 9.34 -2.32 8.68 -3 8 C-2.64700993 4.55834679 -1.95418308 2.93127462 0 0 Z " fill="#30ACDC" transform="translate(29,18)"/>
<path d="M0 0 C2.96921768 0.63911412 5.41649967 1.6407526 8.125 3 C13.02207832 5.24890785 17.65750948 5.7769315 23 6 C22.67 6.66 22.34 7.32 22 8 C14.22605715 8.57584762 7.39521698 6.91018599 1.375 1.75 C0.694375 0.88375 0.694375 0.88375 0 0 Z " fill="#FB8E01" transform="translate(12,55)"/>
<path d="M0 0 C5.98141636 0.29907082 9.72922931 3.05920055 14 7 C16 9.875 16 9.875 17 12 C14.04154732 10.62949185 11.61498661 9.02177157 9.0625 7 C6.1515395 4.76917046 3.53897249 3.1059289 0 2 C0 1.34 0 0.68 0 0 Z " fill="#092AF3" transform="translate(40,4)"/>
<path d="M0 0 C0.33 0 0.66 0 1 0 C1 2.31 1 4.62 1 7 C3.64 7 6.28 7 9 7 C7.8125 9 7.8125 9 6 11 C3.4375 11.375 3.4375 11.375 1 11 C-1 9 -1 9 -1.23046875 7.08984375 C-1.11111111 1.11111111 -1.11111111 1.11111111 0 0 Z " fill="#FBFD90" transform="translate(18,35)"/>
<path d="M0 0 C0.66 0 1.32 0 2 0 C4.1519437 3.22791555 4.20086443 4.28400809 4 8 C3.34 8 2.68 8 2 8 C1.67 8.99 1.34 9.98 1 11 C-1.31 11 -3.62 11 -6 11 C-6.33 10.34 -6.66 9.68 -7 9 C-3.535 8.505 -3.535 8.505 0 8 C0 5.36 0 2.72 0 0 Z " fill="#FD5C6C" transform="translate(43,33)"/>
<path d="M0 0 C1.2065625 0.0309375 1.2065625 0.0309375 2.4375 0.0625 C2.1075 2.0425 1.7775 4.0225 1.4375 6.0625 C-0.5425 6.0625 -2.5225 6.0625 -4.5625 6.0625 C-3.48963568 0.08511307 -3.48963568 0.08511307 0 0 Z " fill="#FCFDD1" transform="translate(26.5625,33.9375)"/>
<path d="M0 0 C0.33 0.99 0.66 1.98 1 3 C0.06319025 4.40521463 -0.88166164 5.80603476 -1.875 7.171875 C-3.92604234 10.5048188 -4.90452607 14.2654298 -6 18 C-6.33 18 -6.66 18 -7 18 C-6.81997112 10.92977473 -5.12910684 5.12910684 0 0 Z " fill="#05F62D" transform="translate(9,12)"/>
<path d="M0 0 C2.31 0.33 4.62 0.66 7 1 C7 2.32 7 3.64 7 5 C5.02 5 3.04 5 1 5 C0.67 3.35 0.34 1.7 0 0 Z " fill="#FDC1C7" transform="translate(34,34)"/>
<path d="M0 0 C0.33 0.99 0.66 1.98 1 3 C-0.76641683 3.6987693 -2.53832664 4.38366583 -4.3125 5.0625 C-5.79169922 5.63677734 -5.79169922 5.63677734 -7.30078125 6.22265625 C-10 7 -10 7 -13 6 C-12.39671875 5.73445313 -11.7934375 5.46890625 -11.171875 5.1953125 C-10.37265625 4.84210937 -9.5734375 4.48890625 -8.75 4.125 C-7.96109375 3.77695312 -7.1721875 3.42890625 -6.359375 3.0703125 C-4.21131392 2.09586095 -2.10170798 1.07013571 0 0 Z " fill="#ED0C1A" transform="translate(47,56)"/>
<path d="M0 0 C-0.99 0.66 -1.98 1.32 -3 2 C-5.06344605 3.54043398 -7.11164611 5.09993158 -9.16015625 6.66015625 C-11 8 -11 8 -13 9 C-12.66960927 5.91635318 -12.02342865 5.02152903 -9.6875 2.875 C-3.76691729 -1.2556391 -3.76691729 -1.2556391 0 0 Z " fill="#04EFAA" transform="translate(23,5)"/>
<path d="M0 0 C0.33 0 0.66 0 1 0 C0.51470588 6.43014706 0.51470588 6.43014706 -1.75 8.9375 C-4.35402628 10.16717908 -6.15312226 10.23723981 -9 10 C-8.4225 9.7525 -7.845 9.505 -7.25 9.25 C-3.90673592 7.39263106 -1.48080747 5.44242241 -0.25 1.75 C-0.1675 1.1725 -0.085 0.595 0 0 Z " fill="#D33241" transform="translate(49,37)"/>
<path d="M0 0 C0.99 0 1.98 0 3 0 C6.07692308 5.41538462 6.07692308 5.41538462 5.6875 8.375 C5.460625 8.91125 5.23375 9.4475 5 10 C2.82145293 6.7321794 1.50239966 3.61941735 0 0 Z " fill="#5704EF" transform="translate(55,16)"/>
<path d="M0 0 C-1.75 3.875 -1.75 3.875 -4 5 C-5.13350534 7.01669827 -5.13350534 7.01669827 -6 9 C-6.25 6.75 -6.25 6.75 -6 4 C-2.75675676 0 -2.75675676 0 0 0 Z " fill="#E1E473" transform="translate(19,33)"/>
</svg>
